<mxfile host="Electron" modified="2024-11-04T07:37:33.640Z" agent="Mozilla/5.0 (Windows NT 10.0; Win64; x64) AppleWebKit/537.36 (KHTML, like Gecko) draw.io/22.0.3 Chrome/114.0.5735.289 Electron/25.8.4 Safari/537.36" etag="n_FR1-sX9riiwMJ-Yk0W" version="22.0.3" type="device">
  <diagram name="Seite-1" id="auS5ecg8x6eOTSjT9O9u">
    <mxGraphModel dx="1098" dy="828" grid="1" gridSize="10" guides="1" tooltips="1" connect="1" arrows="1" fold="1" page="1" pageScale="1" pageWidth="827" pageHeight="1169" math="0" shadow="0">
      <root>
        <mxCell id="0" />
        <mxCell id="1" parent="0" />
        <mxCell id="c2SQZz7WzGZfj_RN_DNf-3" style="edgeStyle=orthogonalEdgeStyle;rounded=0;orthogonalLoop=1;jettySize=auto;html=1;exitX=1;exitY=0.5;exitDx=0;exitDy=0;entryX=0;entryY=0.5;entryDx=0;entryDy=0;endArrow=none;endFill=0;" edge="1" parent="1" source="c2SQZz7WzGZfj_RN_DNf-1" target="c2SQZz7WzGZfj_RN_DNf-2">
          <mxGeometry relative="1" as="geometry" />
        </mxCell>
        <mxCell id="c2SQZz7WzGZfj_RN_DNf-7" style="edgeStyle=orthogonalEdgeStyle;rounded=0;orthogonalLoop=1;jettySize=auto;html=1;exitX=0.5;exitY=1;exitDx=0;exitDy=0;entryX=0.5;entryY=0;entryDx=0;entryDy=0;endArrow=none;endFill=0;" edge="1" parent="1" source="c2SQZz7WzGZfj_RN_DNf-1" target="c2SQZz7WzGZfj_RN_DNf-6">
          <mxGeometry relative="1" as="geometry" />
        </mxCell>
        <mxCell id="c2SQZz7WzGZfj_RN_DNf-1" value="&lt;h3&gt;Besucher&lt;/h3&gt;" style="rounded=0;whiteSpace=wrap;html=1;" vertex="1" parent="1">
          <mxGeometry x="40" y="310" width="180" height="80" as="geometry" />
        </mxCell>
        <mxCell id="c2SQZz7WzGZfj_RN_DNf-5" style="edgeStyle=orthogonalEdgeStyle;rounded=0;orthogonalLoop=1;jettySize=auto;html=1;exitX=1;exitY=0.5;exitDx=0;exitDy=0;endArrow=none;endFill=0;" edge="1" parent="1" source="c2SQZz7WzGZfj_RN_DNf-2" target="c2SQZz7WzGZfj_RN_DNf-4">
          <mxGeometry relative="1" as="geometry" />
        </mxCell>
        <mxCell id="c2SQZz7WzGZfj_RN_DNf-2" value="&lt;h3&gt;kaufen&lt;/h3&gt;" style="rhombus;whiteSpace=wrap;html=1;" vertex="1" parent="1">
          <mxGeometry x="358" y="310" width="116" height="80" as="geometry" />
        </mxCell>
        <mxCell id="c2SQZz7WzGZfj_RN_DNf-9" style="edgeStyle=orthogonalEdgeStyle;rounded=0;orthogonalLoop=1;jettySize=auto;html=1;exitX=0.5;exitY=1;exitDx=0;exitDy=0;endArrow=none;endFill=0;" edge="1" parent="1" source="c2SQZz7WzGZfj_RN_DNf-4" target="c2SQZz7WzGZfj_RN_DNf-8">
          <mxGeometry relative="1" as="geometry" />
        </mxCell>
        <mxCell id="c2SQZz7WzGZfj_RN_DNf-4" value="&lt;h3&gt;Besucher&lt;/h3&gt;" style="rounded=0;whiteSpace=wrap;html=1;" vertex="1" parent="1">
          <mxGeometry x="610" y="310" width="180" height="80" as="geometry" />
        </mxCell>
        <mxCell id="c2SQZz7WzGZfj_RN_DNf-6" value="&lt;h3&gt;BesucherID, Vorname, Nachname, Geburtsdatum&lt;/h3&gt;" style="ellipse;whiteSpace=wrap;html=1;" vertex="1" parent="1">
          <mxGeometry x="22.5" y="450" width="215" height="135" as="geometry" />
        </mxCell>
        <mxCell id="c2SQZz7WzGZfj_RN_DNf-8" value="&lt;h3&gt;KartenID, Kartenbezeichnung, Rabatte, Anzahl&lt;/h3&gt;" style="ellipse;whiteSpace=wrap;html=1;" vertex="1" parent="1">
          <mxGeometry x="592.5" y="450" width="215" height="135" as="geometry" />
        </mxCell>
      </root>
    </mxGraphModel>
  </diagram>
</mxfile>
